<?xml version="1.0" standalone="no"?>
<!DOCTYPE svg PUBLIC "-//W3C//DTD SVG 20010904//EN"
 "http://www.w3.org/TR/2001/REC-SVG-20010904/DTD/svg10.dtd">
<svg version="1.0" xmlns="http://www.w3.org/2000/svg"
 width="418.000000pt" height="418.000000pt" viewBox="0 0 418.000000 418.000000"
 preserveAspectRatio="xMidYMid meet">

<g transform="translate(0.000000,418.000000) scale(0.100000,-0.100000)"
fill="#000000" stroke="none">
<path d="M1960 4121 c-148 -47 -249 -160 -289 -320 l-16 -63 -85 -25 c-134
-38 -275 -98 -400 -170 -134 -76 -182 -110 -306 -215 l-92 -77 -52 20 c-157
59 -348 14 -461 -109 -58 -64 -83 -109 -104 -189 -38 -145 0 -286 108 -400
l51 -54 -18 -62 c-9 -34 -28 -114 -42 -177 -45 -206 -44 -548 2 -750 15 -64
15 -65 -8 -79 -50 -32 -117 -111 -149 -177 -32 -66 -34 -74 -34 -179 1 -142
22 -199 107 -291 71 -75 152 -119 250 -136 179 -29 367 71 451 241 30 62 32
71 32 181 0 109 -2 119 -32 183 -36 76 -116 163 -181 196 -64 32 -150 52 -221
50 l-65 -2 -12 54 c-51 226 -40 552 27 800 l21 75 112 0 c94 -1 120 3 169 22
253 102 352 406 207 631 l-39 60 47 43 c120 113 296 225 469 299 106 46 260
97 266 88 2 -2 16 -31 32 -64 57 -119 186 -213 320 -235 179 -29 375 75 451
238 16 34 34 62 39 62 19 0 168 -51 252 -86 158 -65 345 -183 467 -295 l55
-50 -39 -60 c-145 -225 -45 -529 207 -631 49 -19 75 -23 170 -22 104 0 112 -1
118 -20 81 -285 96 -588 42 -850 l-12 -59 -70 2 c-122 4 -254 -53 -329 -141
-19 -21 -49 -67 -67 -101 -33 -61 -34 -65 -34 -182 0 -116 1 -123 33 -188 104
-211 354 -301 568 -203 77 36 168 125 207 205 30 63 32 72 32 181 0 108 -2
119 -32 182 -29 62 -99 145 -151 180 -22 15 -22 16 -8 79 28 124 39 269 33
454 -6 185 -17 254 -63 432 l-27 103 52 55 c30 31 66 84 84 123 28 61 31 76
31 167 0 81 -4 111 -23 158 -85 216 -340 330 -552 247 l-50 -20 -87 74 c-221
187 -431 303 -685 380 l-111 34 -17 63 c-29 116 -78 191 -172 262 -94 72 -257
97 -377 58z"/>
<path d="M2070 3223 c-8 -3 -23 -12 -32 -21 -16 -14 -18 -40 -18 -268 l0 -253
26 -20 c15 -12 34 -21 44 -21 10 0 29 9 44 21 l26 20 0 249 c0 222 -2 250 -17
268 -20 23 -50 33 -73 25z"/>
<path d="M992 2620 c-24 -23 -29 -67 -9 -92 6 -9 100 -71 207 -137 204 -127
239 -140 273 -103 35 38 18 92 -37 126 -12 7 -98 61 -192 120 -96 59 -182 106
-196 106 -13 0 -34 -9 -46 -20z"/>
<path d="M2915 2514 c-110 -70 -203 -131 -207 -138 -14 -21 -8 -73 10 -89 38
-34 70 -22 272 104 107 67 201 128 208 137 33 42 -2 112 -55 112 -18 0 -99
-45 -228 -126z"/>
<path d="M1952 2505 c-71 -16 -165 -61 -235 -112 -134 -98 -236 -304 -237
-476 0 -143 64 -308 161 -412 78 -83 153 -132 259 -168 70 -25 102 -30 180
-30 114 -1 180 13 280 61 104 50 222 167 274 272 162 332 2 726 -344 846 -93
33 -242 41 -338 19z"/>
<path d="M1150 1516 c-199 -101 -240 -130 -240 -166 0 -29 39 -70 67 -70 28 0
418 192 447 220 42 41 10 121 -48 120 -11 -1 -113 -48 -226 -104z"/>
<path d="M2762 1603 c-33 -28 -37 -66 -10 -96 30 -33 414 -227 449 -227 18 0
35 9 48 26 25 32 26 52 5 82 -17 25 -422 232 -453 232 -10 0 -28 -8 -39 -17z"/>
<path d="M1570 1223 c-85 -87 -141 -178 -175 -286 -13 -40 -51 -207 -84 -372
-61 -296 -61 -300 -43 -324 34 -46 265 -129 485 -173 98 -20 141 -23 342 -23
212 1 240 3 360 28 214 46 431 126 460 171 16 24 13 41 -49 339 -68 325 -85
388 -129 472 -33 65 -65 107 -134 178 -73 74 -92 79 -163 40 -212 -117 -464
-119 -691 -3 -33 16 -69 30 -81 30 -15 0 -49 -28 -98 -77z"/>
</g>
</svg>
